<?xml version="1.0" encoding="utf-8"?>
<!-- Generator: Adobe Illustrator 15.1.0, SVG Export Plug-In . SVG Version: 6.00 Build 0)  -->
<!DOCTYPE svg PUBLIC "-//W3C//DTD SVG 1.1//EN" "http://www.w3.org/Graphics/SVG/1.1/DTD/svg11.dtd">
<svg version="1.1" id="Capa_1" xmlns="http://www.w3.org/2000/svg" xmlns:xlink="http://www.w3.org/1999/xlink" x="0px" y="0px"
	 width="85.074px" height="77.604px" viewBox="0 0 85.074 77.604" enable-background="new 0 0 85.074 77.604" xml:space="preserve">
<g>
	<g>
		<path fill="#ddd" d="M10.445,45.136v16.025c0,8.91,7.877,16.44,17.198,16.44h6.414c2.444,0,4.429-1.981,4.429-4.43V45.136
			h10.362l0.215,28.073c0.021,2.434,1.994,4.396,4.43,4.396h5.318c9.139,0,16.57-7.376,16.57-16.44V45.136h5.264
			c1.791,0,3.406-1.078,4.092-2.733c0.688-1.653,0.307-3.558-0.959-4.823L48.801,2.594c-1.674-1.674-3.896-2.595-6.26-2.595
			c-2.367,0-4.59,0.923-6.264,2.597L22.21,16.661c-0.215-3.053-2.734-5.473-5.842-5.473h-0.037c-3.252,0-5.887,2.636-5.887,5.886
			v10.366c0,0.322,0.045,0.606,0.096,0.893l-9.242,9.243c-1.268,1.269-1.646,3.17-0.961,4.823c0.686,1.655,2.303,2.731,4.092,2.731
			L10.445,45.136L10.445,45.136z"/>
	</g>
</g>
</svg>
